<?xml version="1.0" encoding="UTF-8" standalone="no"?>
<!-- Created with Inkscape (http://www.inkscape.org/) -->

<svg
   xmlns:dc="http://purl.org/dc/elements/1.1/"
   xmlns:cc="http://creativecommons.org/ns#"
   xmlns:rdf="http://www.w3.org/1999/02/22-rdf-syntax-ns#"
   xmlns:svg="http://www.w3.org/2000/svg"
   xmlns="http://www.w3.org/2000/svg"
   xmlns:sodipodi="http://sodipodi.sourceforge.net/DTD/sodipodi-0.dtd"
   xmlns:inkscape="http://www.inkscape.org/namespaces/inkscape"
   width="665.08344"
   height="894.22028"
   viewBox="0 0 665.08343 894.22028"
   id="svg5781"
   version="1.1"
   inkscape:version="0.91 r13725"
   sodipodi:docname="oldfilmcamera.svg">
  <defs
     id="defs5783" />
  <sodipodi:namedview
     id="base"
     pagecolor="#ffffff"
     bordercolor="#666666"
     borderopacity="1.0"
     inkscape:pageopacity="0.0"
     inkscape:pageshadow="2"
     inkscape:zoom="0.35"
     inkscape:cx="-241.88086"
     inkscape:cy="475.10205"
     inkscape:document-units="px"
     inkscape:current-layer="layer1"
     showgrid="false"
     fit-margin-top="0"
     fit-margin-left="0"
     fit-margin-right="0"
     fit-margin-bottom="0"
     units="px"
     inkscape:window-width="1916"
     inkscape:window-height="1035"
     inkscape:window-x="4"
     inkscape:window-y="1"
     inkscape:window-maximized="1" />
  <metadata
     id="metadata5786">
    <rdf:RDF>
      <cc:Work
         rdf:about="">
        <dc:format>image/svg+xml</dc:format>
        <dc:type
           rdf:resource="http://purl.org/dc/dcmitype/StillImage" />
        <dc:title></dc:title>
      </cc:Work>
    </rdf:RDF>
  </metadata>
  <g
     inkscape:label="Layer 1"
     inkscape:groupmode="layer"
     id="layer1"
     transform="translate(-202.59514,-113.24396)">
    <path
       style="fill:#000000"
       d="m 362.44302,992.96637 c 2.61887,-9.85639 4.76157,-37.03742 4.76157,-60.40194 0,-46.00733 7.76637,-59.86202 8.65928,-15.4476 l 0.54352,27.0333 4.97548,-20.19356 c 2.73651,-11.1065 7.48506,-23.07134 10.55226,-26.58862 5.07127,-5.81534 31.80657,-81.81232 31.99884,-90.95895 0.045,-2.12402 -2.27715,-3.8619 -5.15953,-3.8619 -2.88238,0 -3.91095,3.298 -2.28562,7.32892 3.2287,8.00746 -15.65998,20.38029 -21.95996,14.3846 -2.12106,-2.01865 -2.22148,2.52933 -0.22335,10.10652 1.99826,7.57728 1.58239,17.26437 -0.92416,21.52704 -6.79541,11.55625 -7.74143,-37.6849 -0.9558,-49.75154 3.52926,-6.27597 3.65925,-11.63958 0.35839,-14.78109 -6.89574,-6.56272 -17.07062,33.82782 -14.492,57.52836 1.85953,17.0916 1.75132,17.22453 -2.09496,2.5746 l -4.05573,-15.4476 -4.03955,14.59819 c -2.22173,8.02905 -2.56433,19.61475 -0.76128,25.746 2.59467,8.8233 2.09344,9.53731 -2.40388,3.42402 -4.4459,-6.04348 -5.74529,-3.803 -5.97257,10.2984 -0.45232,28.06207 -24.94437,112.42538 -29.55284,101.79534 -2.24987,-5.18998 2.12231,-25.40995 10.46712,-48.40743 7.88202,-21.72214 13.07925,-42.59902 11.54945,-46.39315 -1.52984,-3.79406 4.41577,-29.15058 13.21248,-56.34779 8.7967,-27.19714 15.40707,-56.76237 14.68972,-65.70051 -1.07155,-13.35094 0.57858,-16.09282 9.24651,-15.36423 13.1704,1.10703 46.0524,-14.61714 36.79135,-17.59359 -3.71977,-1.19556 -6.76317,-5.19842 -6.76317,-8.8953 0,-7.57629 -32.42275,-14.95168 -43.91057,-9.98859 -4.11918,1.77961 -24.53264,21.24214 -45.36318,43.25008 -26.09997,27.57512 -42.07861,40.32405 -51.40005,41.01042 -57.70759,4.24941 -67.59774,3.04861 -69.31258,-8.41516 -2.38859,-15.96763 12.6903,-21.72999 51.85631,-19.81688 l 33.4817,1.63555 39.33326,-38.29168 c 35.93017,-34.97861 41.32243,-38.36711 62.32421,-39.16413 12.64497,-0.47986 22.9909,-2.75461 22.9909,-5.05499 0,-2.30042 5.89501,-6.31556 13.10002,-8.92254 10.91075,-3.94795 13.72271,-9.48326 16.82615,-33.12238 3.05106,-23.24044 1.65796,-32.4482 -7.68949,-50.82488 -6.2786,-12.34337 -11.41562,-27.50373 -11.41562,-33.68978 0,-6.56474 -3.37881,-11.24725 -8.11579,-11.24725 -4.46369,0 -8.1158,-2.31714 -8.1158,-5.14921 0,-2.83206 9.73896,-5.1492 21.64213,-5.1492 11.90316,0 21.64212,-2.32315 21.64212,-5.16259 0,-2.83943 -9.67014,-13.47702 -21.48916,-23.63903 -13.72582,-11.80152 -22.72163,-24.72906 -24.90082,-35.78394 -5.14295,-26.0901 -21.14098,-33.27072 -73.80397,-33.12642 -24.65496,0.0676 -54.5662,2.54593 -66.46936,5.50746 -11.90317,2.96154 -26.61852,6.56083 -32.70073,7.99836 -6.43555,1.52107 -16.59432,-1.65228 -24.30038,-7.59087 -13.05791,-10.06294 -13.09929,-10.35447 -2.98181,-20.9942 10.7699,-11.32577 30.07368,-13.95491 45.45967,-6.19152 5.01197,2.52891 34.19144,5.49004 64.84322,6.58022 l 55.7305,1.98212 -4.28977,-20.74049 c -13.53568,-65.44289 16.75961,-137.17142 54.99752,-130.21485 18.79415,3.41919 21.18812,-2.44818 7.6714,-18.80188 -6.19584,-7.49629 -9.83193,-17.18408 -8.08026,-21.5284 4.49927,-11.15856 12.62212,-4.69866 16.78762,13.35077 1.9458,8.43122 5.88281,16.70879 8.74892,18.39459 3.22363,1.8961 3.63955,-2.50012 1.09054,-11.52663 -7.98226,-28.26664 -3.95986,-76.66027 8.87301,-106.75122 19.86358,-46.57687 53.32334,-62.119754 78.3663,-36.40312 14.64358,15.03748 19.53773,34.96942 19.90959,81.08381 0.47046,58.3365 -16.92302,95.30344 -51.60309,109.67387 -10.11488,4.19128 -12.94195,6.99541 -7.17579,7.11755 8.3001,0.1759 7.48908,3.65243 -6.35322,27.23487 -8.72736,14.86834 -18.81185,41.55385 -22.40999,59.30121 -6.26336,30.89314 -5.93505,33.3814 7.70586,58.40372 7.83635,14.37467 14.24791,29.39769 14.24791,33.38441 0,3.98672 4.26077,7.21313 9.46843,7.16975 5.44732,-0.0453 7.1239,-1.68548 3.94779,-3.8619 -8.5235,-5.84076 -19.40394,-32.10366 -13.30021,-32.10366 2.91199,0 5.29452,-2.24444 5.29452,-4.9876 0,-2.74317 -3.04344,-4.2815 -6.76316,-3.41854 -3.71976,0.86301 -4.93713,0.59719 -2.70526,-0.59067 2.23182,-1.1879 4.02063,-6.02168 3.97505,-10.74181 -0.0723,-7.46717 -0.82097,-7.57868 -5.76494,-0.85819 -4.49512,6.11025 -4.99596,5.39097 -2.39748,-3.44312 2.37328,-8.0686 0.59512,-11.83172 -6.40875,-13.56296 -8.98637,-2.22132 -9.00277,-2.43965 -0.22508,-2.99342 6.55272,-0.41337 9.48821,-4.95781 9.53267,-14.75761 0.15669,-34.57771 24.55169,-93.97292 38.59669,-93.97292 4.05586,0 4.21584,2.04778 0.50292,6.4365 -8.27067,9.77595 -33.75332,80.15037 -33.75332,93.21513 0,10.03295 21.18513,85.77296 30.34715,108.49564 2.08336,5.16688 0.3255,8.11918 -4.83433,8.11918 -4.45949,0 -9.70792,-6.06625 -11.66324,-13.48061 -1.95537,-7.41431 -4.72214,-12.36994 -6.14849,-11.01253 -5.11087,4.86402 8.42511,29.64234 16.19307,29.64234 12.84841,0 14.26891,-7.62922 5.87233,-31.53955 -14.67448,-41.78754 -23.77101,-86.64734 -17.32521,-85.43971 3.29462,0.61724 6.24302,-2.35347 6.55211,-6.60157 0.30905,-4.24809 2.52122,-11.80831 4.91588,-16.80048 2.63185,-5.48653 1.73353,-12.08163 -2.27121,-16.67398 -5.30275,-6.08083 -5.0437,-8.17483 1.29788,-10.49077 5.06646,-1.8503 7.00945,-7.44171 5.38914,-15.50853 -1.52676,-7.60097 -0.004,-12.61505 3.82668,-12.61505 3.51788,0 4.65409,2.87663 2.54226,6.4365 -2.85339,4.80989 -1.92001,4.75572 3.69335,-0.21462 6.39741,-5.66433 6.31453,-7.37122 -0.55888,-11.50686 -7.39442,-4.44907 -3.66263,-7.29341 7.21055,-5.4958 2.45304,0.40534 2.91805,-1.6372 1.03332,-4.53945 -1.88472,-2.90222 -0.23979,-5.43962 3.65575,-5.63867 3.89536,-0.19896 2.21299,-2.21972 -3.73859,-4.49035 -8.83203,-3.36955 -6.34569,-4.9918 13.52632,-8.82565 16.93739,-3.26768 24.36838,-7.27541 24.41639,-13.16844 0.0389,-4.65916 1.86403,-10.17952 4.05789,-12.26746 2.19391,-2.08794 3.98891,-7.77731 3.98891,-12.6431 0,-6.8584 6.66742,-9.63971 29.66369,-12.37415 16.31504,-1.93997 31.98143,-2.16394 34.81425,-0.49774 2.83283,1.6662 4.09599,13.73597 2.80711,26.8217 l -2.34349,23.79223 25.6924,-2.67495 c 31.32762,-3.26158 39.21878,-0.8532 39.21878,11.96971 0,5.42812 2.43473,9.86929 5.41053,9.86929 2.97579,0 5.41053,8.10999 5.41053,18.0222 0,9.91222 -2.51101,18.02221 -5.58004,18.02221 -3.06898,0 -5.00612,8.10999 -4.3047,18.0222 0.70142,9.91221 4.16014,18.02221 7.6859,18.02221 3.52585,0 11.84326,4.18667 18.48328,9.3037 21.844,16.83385 11.23265,73.08351 -13.78699,73.08351 -9.53629,0 -13.41755,24.60804 -4.40062,27.90101 10.51548,3.84028 9.01533,27.25711 -2.15473,33.63355 -9.00325,5.13952 -8.99767,5.6736 0.11384,10.87075 12.21425,6.96695 7.10376,15.13111 -9.47164,15.13111 -9.82002,0 -13.60878,3.60366 -16.37062,15.57094 -1.97649,8.56403 -10.04315,22.86563 -17.92595,31.78136 -9.55227,10.80385 -12.10617,16.9167 -7.65742,18.32799 3.6712,1.16462 6.67495,5.40015 6.67495,9.4122 0,5.05759 6.52917,7.29473 21.28992,7.29473 33.01991,0 44.89801,6.79654 68.98003,39.46962 23.28588,31.5929 39.17804,38.69921 61.32187,27.42061 13.51546,-6.88387 37.77676,3.67047 37.77676,16.4339 0,14.20747 -23.48603,22.85948 -41.20072,15.17803 -7.78142,-3.37421 -18.68407,-4.76474 -24.22818,-3.09014 -7.21007,2.17787 -12.80997,-1.13319 -19.66775,-11.62895 -5.27324,-8.07053 -17.66586,-25.26116 -27.53922,-38.20135 -17.60863,-23.07814 -18.4873,-23.50796 -45.98951,-22.49628 -17.39247,0.63977 -27.8325,3.29569 -27.49688,6.99517 0.2978,3.28008 0.90629,18.15859 1.35263,33.06339 0.67095,22.40499 2.84698,27.98014 12.56088,32.1825 16.45442,7.11847 32.88758,29.95278 32.88758,45.69813 0,7.29498 1.67181,12.28027 3.71518,11.07841 5.53938,-3.25817 45.00635,93.91797 40.78423,100.41955 -1.99679,3.07482 1.80456,19.42193 8.44744,36.32692 13.26532,33.75758 10.52963,48.90983 -3.18892,17.6627 -8.39524,-19.12207 -8.69053,-19.27416 -16.58834,-8.54301 -6.09927,8.28728 -6.60306,13.10842 -2.08639,19.9653 5.03188,7.63895 5.45533,7.04493 2.73262,-3.83323 -2.72578,-10.89043 -2.3038,-11.47897 2.73972,-3.82112 6.01582,9.13403 3.23277,19.26889 -5.29128,19.26889 -2.54001,0 -11.32892,-16.79941 -19.53094,-37.33187 -24.39006,-61.05684 -45.80057,-103.99582 -54.04427,-108.3864 -4.25506,-2.26627 -7.89077,-9.21889 -8.0794,-15.45028 -0.33026,-10.90535 -0.54053,-10.85885 -5.61899,1.24062 -4.02145,9.58156 -2.5252,19.02062 6.29301,39.69787 6.363,14.92012 11.40432,28.348 11.20292,29.83983 -0.20127,1.49179 8.13445,21.61326 18.52397,44.71434 10.38952,23.10109 17.63058,43.20057 16.09131,44.66541 -1.53928,1.46485 -7.78783,-1.63333 -13.88572,-6.88551 -9.69463,-8.3497 -10.64537,-8.45351 -7.57015,-0.82676 2.72721,6.76399 0.47937,8.72275 -10.00931,8.72275 -15.69976,0 -20.36104,-7.9652 -25.61445,-43.76837 l -3.77763,-25.74601 -0.76181,34.75711 c -0.62242,28.39821 -2.37526,34.75727 -9.58122,34.75727 -7.41135,0 -8.25418,-3.90515 -5.27891,-24.45887 11.68805,-80.74298 13.57438,-100.54586 13.12045,-137.74113 l -0.50266,-41.19361 -3.82697,31.97526 c -2.10483,17.58638 -6.84627,35.4375 -10.53651,39.6692 -4.54303,5.20959 -6.65578,27.7226 -6.54307,69.7215 0.0961,35.69472 -2.00752,62.02765 -4.95466,62.02765 -2.85529,0 -5.10256,-21.07486 -5.07897,-47.63028 0.0389,-46.00374 -0.74436,-49.07979 -22.99476,-90.08609 -22.51365,-41.49144 -23.48919,-42.45657 -42.9378,-42.48091 -19.28148,-0.0247 -20.26174,0.89637 -31.50201,29.58298 -6.38071,16.28437 -16.06127,34.24219 -21.51231,39.90631 -5.45109,5.66412 -16.29245,25.35982 -24.09193,43.76821 -7.79943,18.40839 -16.55436,37.49335 -19.4554,42.41105 -2.901,4.91769 -5.27453,13.60707 -5.27453,19.3095 0,5.70243 -2.04021,10.36843 -4.53373,10.36843 -2.49356,0 -7.4242,-33.0194 -10.95693,-73.37628 -3.53273,-40.35684 -7.7738,-88.88662 -9.42467,-107.844 -2.045,-23.48448 -5.88098,-36.61107 -12.03782,-41.19361 -7.92625,-5.89946 -8.20003,-5.70573 -2.22836,1.57709 4.70041,5.73251 6.44953,25.65835 5.65002,64.36502 -0.63688,30.8342 0.8144,78.99496 3.22503,107.024 3.8945,45.28228 3.4349,50.61562 -4.12413,47.85482 -4.67894,-1.70871 -9.94615,-0.8906 -11.70497,1.81747 -1.75881,2.70848 -5.40239,4.92469 -8.09679,4.92469 -2.6944,0 0.0528,-10.99457 6.10524,-24.43189 9.44869,-20.97829 10.47288,-30.50135 7.24574,-67.37165 l -3.75837,-42.93985 -10.01078,27.46535 c -5.50597,15.1059 -15.17996,45.32895 -21.49781,67.16239 -6.31786,21.83352 -15.21571,42.64205 -19.77307,46.24195 -7.29569,5.7622 -7.71693,4.4028 -3.52446,-11.37683 z M 503.70657,873.34862 c 5.05227,-5.32209 6.05283,-9.01111 2.44405,-9.01111 -3.36055,0 -10.21725,7.53073 -15.23705,16.73491 -5.01981,9.20422 -10.09969,13.99557 -11.28862,10.64747 -1.18893,-3.34805 2.01453,-13.77518 7.11879,-23.1714 7.33845,-13.50899 7.59045,-15.74988 1.20429,-10.70865 -9.60828,7.58477 -21.34999,42.15956 -24.04167,70.79344 -1.89658,20.17556 -1.64523,19.95485 14.65817,-12.873 9.12328,-18.37029 20.43722,-37.45554 25.14204,-42.41166 z m -31.82136,-28.52695 c 14.72421,-34.43398 15.13671,-37.12537 5.69049,-37.12537 -5.60155,0 -13.22563,4.63428 -16.94245,10.2984 -3.71682,5.66412 -9.82431,10.29841 -13.57217,10.29841 -8.13068,0 -9.04437,8.37894 -1.40379,12.873 2.97579,1.75032 5.41053,12.7004 5.41053,24.33348 0,11.63311 1.11202,20.0928 2.47114,18.79932 1.35917,-1.29348 9.61499,-19.05823 18.34625,-39.47724 z m 233.47756,-14.81219 c 0,-3.77605 -2.59879,-6.86558 -5.77516,-6.86558 -3.22836,0 -4.32431,-4.35033 -2.48517,-9.86504 1.8095,-5.42582 0.34238,-11.5988 -3.26008,-13.71772 -4.4017,-2.58898 -5.49987,-1.248 -3.34816,4.08838 1.76102,4.36756 0.87758,10.15312 -1.9632,12.85669 -2.84084,2.70362 -3.76314,8.39258 -2.04964,12.64228 3.85727,9.56639 18.88141,10.25157 18.88141,0.86099 z M 539.30081,801.23162 c 69.71573,-1.12055 79.55155,-0.21214 89.39422,8.2564 13.82113,11.8916 19.84007,8.61144 21.46617,-11.69866 l 1.26814,-15.83906 -77.18603,-0.89716 c -42.45227,-0.49338 -86.92493,-1.27169 -98.8281,-1.72956 -27.88129,-1.07235 -35.20992,4.73299 -34.98843,27.71589 l 0.18006,18.67904 10.17968,-11.61388 c 9.59737,-10.94955 14.66007,-11.68585 88.51438,-12.87301 z m -131.51724,3.28231 c 0,-4.24809 -2.43473,-6.29175 -5.41053,-4.54143 -2.97579,1.75032 -5.41053,6.65808 -5.41053,10.90617 0,4.24809 2.43474,6.29175 5.41053,4.54143 2.9758,-1.75031 5.41053,-6.65808 5.41053,-10.90617 z m 275.93707,0.60777 c 0,-4.24809 -2.43474,-7.7238 -5.41053,-7.7238 -2.97579,0 -5.41053,3.47571 -5.41053,7.7238 0,4.24809 2.43474,7.7238 5.41053,7.7238 2.97579,0 5.41053,-3.47571 5.41053,-7.7238 z m -443.66352,-12.873 c 0,-2.83206 -3.5084,-5.1492 -7.79649,-5.1492 -4.28808,0 -9.30122,2.31714 -11.14037,5.1492 -1.83914,2.83206 1.6693,5.1492 7.79649,5.1492 6.12719,0 11.14037,-2.31714 11.14037,-5.1492 z m 54.10531,2.87852 c 0,-1.2489 -2.43474,-3.70281 -5.41053,-5.45312 -2.97579,-1.75032 -5.41053,-0.72851 -5.41053,2.27067 0,2.99923 2.43474,5.45313 5.41053,5.45313 2.97579,0 5.41053,-1.02181 5.41053,-2.27068 z m 128.80781,-10.73859 c -1.66584,-1.58538 -4.69119,1.27243 -6.72299,6.35069 -2.93623,7.33864 -2.31476,7.93006 3.02877,2.88253 3.69764,-3.49293 5.36006,-7.6478 3.69422,-9.23322 z m 271.65431,-1.15103 c 0.0714,-7.77592 0.86963,-7.95239 5.82243,-1.2873 5.10187,6.86557 5.49346,6.86557 3.5242,0 -3.05803,-10.66149 -16.99145,-9.72829 -19.22054,1.2873 -1.0029,4.95612 0.78985,9.0111 3.98383,9.0111 3.19395,0 5.8445,-4.05498 5.89008,-9.0111 z m -300.8069,-13.39374 c -1.86975,-4.63716 -5.69737,-7.07969 -8.50587,-5.42779 -3.04448,1.79077 -2.50425,5.98737 1.33796,10.39327 7.91491,9.07627 11.75665,6.41496 7.16791,-4.96548 z m 285.17449,-5.7325 12.8443,-9.01852 -16.23159,4.41765 c -20.89902,5.68793 -204.30268,5.76228 -232.57747,0.0943 -20.71359,-4.15227 -21.20984,-3.94857 -12.5433,5.1492 8.24773,8.65808 18.76641,9.42531 122.34366,8.92419 98.88429,-0.47838 114.95634,-1.69718 126.1644,-9.56689 z m -65.6084,-13.05627 c 0,-3.18946 -25.22519,-4.89121 -66.279,-4.47136 -43.56728,0.44538 -59.78991,1.97774 -47.34214,4.47136 29.4503,5.89958 113.62114,5.89958 113.62114,0 z m 56.81058,-5.1492 c 1.83914,-2.83206 0.76548,-5.1492 -2.38592,-5.1492 -3.15144,0 -5.72988,2.31714 -5.72988,5.1492 0,2.83206 1.07367,5.1492 2.38591,5.1492 1.3123,0 3.89074,-2.31714 5.72989,-5.1492 z m -208.30544,-5.1492 c -10.69043,-6.575 -28.6172,-6.575 -24.34739,0 1.83915,2.83206 9.89573,5.11373 17.90354,5.07035 11.38791,-0.0618 12.79166,-1.16623 6.44385,-5.07035 z m 133.91064,-10.24197 c 9.6713,-5.61189 17.57769,-10.81682 17.56972,-11.56642 -0.009,-0.74969 -25.57276,-2.15464 -56.81057,-3.12219 -49.10598,-1.52095 -56.79607,-0.64946 -56.79607,6.4365 0,5.67351 -4.99518,8.19567 -16.23159,8.19567 -13.11305,0 -16.30466,-2.22593 -16.61189,-11.5857 -0.36272,-11.0548 -0.59334,-11.11383 -5.03024,-1.2873 -4.4636,9.88564 -4.66522,9.84115 -5.03023,-1.10996 -0.3294,-9.87679 3.26198,-11.86817 26.751,-14.83361 l 27.1313,-3.42525 -1.43128,-19.91592 c -0.78721,-10.95379 -3.25735,-19.91937 -5.48917,-19.92349 -2.23187,-0.004 -4.0579,2.30956 -4.0579,5.14162 0,2.83206 -2.57844,5.1492 -5.72984,5.1492 -3.1514,0 -4.44512,-1.97832 -2.87494,-4.39622 1.57022,-2.41799 -3.15555,-7.00255 -10.50175,-10.18801 -13.23308,-5.73822 -13.35666,-5.55343 -13.35666,19.97256 0,24.50768 -0.79171,25.91506 -16.23159,28.85386 -12.42284,2.36455 -16.23159,5.88512 -16.23159,15.00337 0,12.38391 0.0389,12.3959 62.2211,19.45706 47.75434,5.42273 81.63604,3.07028 98.74219,-6.85577 z m -149.7151,-13.35851 c 0.2597,-5.99857 1.5417,-7.21869 3.26887,-3.11098 1.56295,3.71702 1.37072,8.15823 -0.42722,9.86928 -1.79785,1.71106 -3.07664,-1.33022 -2.84169,-6.7583 z m 48.26765,-33.04074 c 0,-5.66412 2.28341,-10.2984 5.07425,-10.2984 2.79088,0 4.70747,4.63428 4.25917,10.2984 -0.44834,5.66412 -2.73175,10.29841 -5.07425,10.29841 -2.34255,0 -4.25917,-4.63429 -4.25917,-10.29841 z m -20.38688,-10.2984 c 0,-9.91221 1.11348,-13.96719 2.47438,-9.0111 1.3609,4.95613 1.3609,13.06612 0,18.0222 -1.3609,4.95613 -2.47438,0.90111 -2.47438,-9.0111 z m 190.46635,61.91787 c 16.58908,-6.00253 19.50271,-29.15915 4.41014,-35.05049 -7.03949,-2.74786 -9.46842,-9.64017 -9.46842,-26.86738 0,-21.82273 -0.92681,-23.27179 -15.92337,-24.89663 -13.99955,-1.51679 -15.06344,-0.73918 -8.80592,6.4365 3.91458,4.48895 10.47141,8.16173 14.57073,8.16173 9.6288,0 9.94975,27.66246 0.40861,35.19862 -3.87472,3.06036 -27.61341,6.48309 -52.75268,7.60603 -25.13927,1.1229 -18.06671,1.51514 15.71686,0.87161 33.78352,-0.64356 59.08442,0.27229 56.22428,2.0355 -2.86017,1.76309 -4.54216,7.26771 -3.73776,12.23241 1.60874,9.92901 -7.27613,12.95254 -46.27952,15.74897 l -24.34739,1.7457 28.05304,0.89955 c 15.42919,0.49486 34.29844,-1.36013 41.93162,-4.12212 z m 189.51847,-0.43925 c -3.80092,-5.8527 -18.7345,-6.47778 -18.7345,-0.78395 0,2.22935 4.92211,4.40627 10.93797,4.83753 6.0159,0.4315 9.52435,-1.39276 7.79653,-4.05341 z M 420.06024,711.63297 c -3.6631,-1.41047 -10.96732,-1.49632 -16.23159,-0.19032 -5.26427,1.30551 -2.26719,2.45955 6.66019,2.56451 8.92738,0.10505 13.2345,-0.96323 9.5714,-2.37374 z m 121.63648,-13.35719 c -3.40872,-9.74328 -20.292,-11.12846 -20.292,-1.66484 0,4.77656 4.626,8.10134 11.27195,8.10134 6.6115,0 10.34087,-2.66119 9.02005,-6.4365 z m -86.92459,-14.56363 c 0.78773,-9.83234 0.36921,-10.29157 -1.97857,-2.17128 -1.63766,5.66412 -5.73931,12.21267 -9.11479,14.5523 -4.05513,2.81077 -3.38388,3.54735 1.97852,2.17128 4.46369,-1.14543 8.56535,-7.69398 9.11484,-14.5523 z m 172.62143,2.97792 c 1.86715,-7.08015 1.36466,-19.24511 -1.11669,-27.0333 -4.07223,-12.78139 -4.68414,-11.80082 -6.28371,10.06936 l -1.77214,24.22967 -36.23446,1.79514 -36.23445,1.79509 39.12324,1.00855 c 37.60077,0.96928 39.2554,0.50771 42.51821,-11.86451 z m -28.88878,-11.44873 c -9.67134,-1.14217 -25.49714,-1.14217 -35.16845,0 -9.67134,1.14226 -1.75842,2.07682 17.58423,2.07682 19.34265,0 27.25553,-0.93456 17.58422,-2.07682 z m 114.97378,-6.57347 c -1.83914,-2.83206 -7.46103,-4.98632 -12.49304,-4.78727 -7.45835,0.29494 -7.14939,1.1797 1.67198,4.78727 14.47811,5.92096 14.66609,5.92096 10.82106,0 z m -100.09482,-10.2984 c 0,-9.34041 -3.607,-10.2984 -38.77545,-10.2984 -21.32654,0 -37.06967,1.62339 -34.9848,3.60757 2.08488,1.98421 18.92513,3.41058 37.42283,3.16976 l 33.63216,-0.43784 -24.34739,4.55531 c -13.39106,2.50539 -27.39083,3.46883 -31.11055,2.14104 -3.71976,-1.32784 -6.76317,-0.16972 -6.76317,2.57336 0,2.74317 14.60844,4.9876 32.46319,4.9876 28.85618,0 32.46318,-1.14423 32.46318,-10.2984 z m -83.26785,-28.32061 c -1.72414,-19.92345 -0.78838,-33.46981 2.31203,-33.46981 2.86459,0 5.20839,-3.47571 5.20839,-7.7238 0,-4.24809 -3.65211,-7.7238 -8.11579,-7.7238 -5.86143,0 -8.1158,5.72134 -8.1158,20.59681 0,12.95728 -2.50849,20.65756 -6.76316,20.76054 -4.13036,0.1001 -3.07725,2.82667 2.70526,7.00419 5.20762,3.76222 9.46843,12.95713 9.46843,20.43302 0,7.47598 1.39432,13.59266 3.0985,13.59266 1.70415,0 1.79513,-15.06141 0.20214,-33.46981 z m -28.76221,11.19395 c -9.54015,-3.32461 -20.17258,-8.74878 -23.62765,-12.05374 -9.1496,-8.75212 4.65851,-21.09208 20.39748,-18.22871 7.55825,1.37504 12.46015,-0.23151 12.46015,-4.08315 0,-3.81494 -4.32007,-5.27488 -10.82106,-3.65696 -7.18553,1.78825 -10.82106,0.15818 -10.82106,-4.85257 0,-4.15009 2.43474,-6.11354 5.41053,-4.36323 2.97579,1.75032 5.41053,0.86523 5.41053,-1.96683 0,-9.83233 -10.91759,-11.50661 -14.48551,-2.2214 -1.97341,5.1356 -7.73598,14.49195 -12.80569,20.79194 l -9.21772,11.45446 -8.79817,-21.92506 c -4.83905,-12.05877 -8.79822,-24.74397 -8.79822,-28.18936 0,-3.44539 -2.48114,-6.26435 -5.51363,-6.26435 -7.46861,0 -1.04718,24.29492 11.80469,44.66166 11.89624,18.85233 40.1841,37.69087 55.93004,37.24709 7.4945,-0.21091 5.48871,-2.16328 -6.52466,-6.34979 z m 107.12747,-6.29475 c 16.00829,-7.87832 37.30635,-34.89906 37.34556,-47.38011 0.0433,-13.58235 -16.58215,-5.95948 -19.73631,9.04958 -1.78994,8.51731 -11.55274,22.42016 -21.69511,30.89521 -20.68277,17.28261 -19.66957,19.12639 4.08586,7.43532 z m -51.23621,-1.11614 c 8.22063,-5.11312 29.04074,-38.25226 29.06594,-46.26397 0.0389,-12.47507 -8.70447,-6.23263 -15.19429,10.84776 -3.61203,9.50642 -12.01402,21.67142 -18.67113,27.03331 -11.98593,9.65405 -12.01909,9.6487 -3.40163,-0.54936 12.24564,-14.49166 21.5833,-42.85009 15.32198,-46.53288 -2.79807,-1.64576 -5.08737,0.13017 -5.08737,3.94664 0,3.81642 -4.79062,15.88158 -10.64581,26.81148 -12.85416,23.9949 -8.82531,35.55284 8.61231,24.70702 z m 128.75704,-38.97163 c 2.32969,-9.54097 1.61507,-13.44605 -2.06448,-11.28177 -3.09504,1.82042 -5.62739,6.80349 -5.62739,11.07341 0,4.26993 -6.52813,16.29813 -14.50693,26.72938 l -14.50693,18.96595 16.57142,-15.4476 c 9.11427,-8.49618 18.17475,-22.01386 20.13431,-30.03937 z M 564.68897,446.39403 c 0,-68.44149 -1.13453,-123.35933 -2.52118,-122.03965 -1.38661,1.31968 -2.83962,50.36582 -3.22888,108.99141 -0.56758,85.491 -2.14746,106.59205 -7.98057,106.59205 -4.00007,0 -8.93885,2.56537 -10.97503,5.70087 -2.49126,3.83628 0.0589,4.56487 7.79649,2.22758 9.32269,-2.81595 11.49864,-1.35032 11.49864,7.74523 0,9.82175 -2.18928,10.85558 -17.58423,8.30405 -25.61055,-4.24467 -94.28088,-8.83277 -87.86797,-5.87079 5.19272,2.39846 72.77237,10.69806 98.68903,12.12023 l 12.1737,0.66804 0,-124.43902 z m 109.56324,120.62655 c -18.59872,-1.00545 -49.03295,-1.00545 -67.63163,0 -18.59872,1.00549 -3.38158,1.82817 33.81582,1.82817 37.1974,0 52.41449,-0.82268 33.81581,-1.82817 z m -46.57328,-87.58585 c -1.3119,-44.60494 -0.21296,-84.97195 2.44253,-89.7044 5.82524,-10.38215 -0.0463,-71.20814 -6.8735,-71.20814 -5.07321,0 -5.80653,222.36739 -0.77444,234.8474 6.56029,16.2702 7.47597,3.26489 5.20541,-73.93486 z m 28.90621,61.79041 c -0.0454,-2.12402 -2.443,-7.33761 -5.32768,-11.5857 -4.35046,-6.40672 -5.2731,-5.96768 -5.41053,2.5746 -0.13721,8.54228 -1.06008,8.98132 -5.41053,2.5746 -4.48222,-6.60074 -5.25687,-6.41356 -5.32769,1.2873 -0.0515,5.6046 4.00791,9.0111 10.73822,9.0111 5.95158,0 10.78379,-1.73783 10.73821,-3.8619 z m 52.99377,-26.63439 c 0.71194,-15.57167 -1.10535,-26.14492 -4.49373,-26.14492 -3.42889,0 -5.21471,11.1577 -4.49511,28.08576 1.47682,34.73919 7.3701,33.46672 8.98884,-1.94084 z M 480.29546,482.48009 c -1.38682,-2.1356 -5.9872,-2.61724 -10.22304,-1.07029 -6.04417,2.20736 -6.29799,4.25245 -1.17937,9.50369 6.73096,6.90529 16.61566,-0.40576 11.40241,-8.4334 z m -60.96642,-5.61996 c -1.75591,-10.44963 -3.60791,-13.23757 -4.93107,-7.42301 -2.01397,8.8502 1.66441,24.15791 5.80507,24.15791 1.06587,0 0.67259,-7.53069 -0.874,-16.7349 z m 269.80213,11.5857 c 0,-2.83206 -5.47818,-5.50215 -12.17369,-5.93349 -22.45024,-1.44639 -24.19962,-1.91884 -33.0825,-8.93489 -7.70381,-6.08479 -8.84911,-5.61918 -8.84911,3.59748 0,7.59647 4.20272,11.19276 14.87896,12.73195 28.27539,4.07648 39.22634,3.66858 39.22634,-1.46105 z M 583.65262,444.49328 c 0.73068,-14.86797 -0.46366,-29.79237 -2.65411,-33.16539 -5.99928,-9.2382 -8.59196,2.08691 -9.99251,43.64813 -0.98277,29.16425 -0.0173,34.18386 5.0517,26.29714 3.44651,-5.36102 6.86419,-21.91195 7.59492,-36.77988 z m 146.37606,36.14978 c 9.97135,-7.40814 9.7464,-7.63948 -4.44672,-4.57422 -8.78432,1.89717 -18.26707,0.60798 -22.99475,-3.1261 -9.934,-7.84631 -10.5034,-35.97076 -0.97918,-48.36678 8.53146,-11.10398 29.96547,-9.35251 38.17922,3.1198 6.9224,10.51137 4.96141,12.8419 -12.78236,15.19105 -12.87685,1.7048 -26.51074,12.52731 -26.8806,21.33759 -0.0948,2.25453 10.62624,3.56716 23.82413,2.917 l 23.99618,-1.18213 -1.40198,-22.64994 c -0.78734,-12.71955 -4.78455,-24.6947 -9.11722,-27.31379 -12.3838,-7.48603 -46.72058,-3.47497 -46.1114,5.38648 0.28741,4.17975 -3.12967,7.65546 -7.59336,7.7238 -5.45831,0.0836 -8.42636,6.02547 -9.06432,18.1464 -0.52158,9.91221 0.32376,13.38792 1.87784,7.7238 4.63726,-16.89712 14.56584,-22.9043 10.45856,-6.32783 -2.74959,11.09682 -0.55387,17.10668 9.8766,27.03331 15.66764,14.91089 19.08021,15.42152 33.15936,4.96156 z m -76.64423,-8.53532 c -2.1572,-3.32181 -5.75265,-15.48682 -7.98989,-27.0333 -5.36123,-27.66967 4.76945,-39.01583 34.83625,-39.01583 15.42265,0 20.19123,-1.61256 16.14784,-5.46066 -3.15582,-3.00339 -17.64253,-4.74122 -32.19266,-3.86191 l -26.45486,1.59877 1.22577,29.72082 c 1.1137,27.00319 8.26517,50.0918 15.5155,50.0918 1.55884,0 1.06925,-2.71787 -1.08795,-6.03969 z M 451.06782,450.86078 c 0,-10.49827 -2.14456,-11.60078 -18.93686,-9.73504 -22.28623,2.47611 -25.50775,9.98838 -4.28332,9.98838 8.05944,0 15.56653,2.60677 16.68244,5.79285 3.34007,9.5362 6.53774,6.57899 6.53774,-6.04619 z m 215.75509,-36.85769 c -3.01094,-3.0777 -8.36291,-1.35503 -14.25147,4.58728 -5.18636,5.23364 -6.42304,7.9156 -2.74807,5.95985 4.95829,-2.63878 5.80225,0.62886 3.27202,12.6688 -2.34609,11.16392 -1.05492,17.62127 4.13941,20.70181 5.86073,3.47579 8.31616,-0.38351 10.97939,-17.25609 1.88668,-11.95323 1.26057,-23.95095 -1.39128,-26.66165 z m -269.86122,-7.94526 c -9.58105,-9.11829 -11.39891,-15.2074 -8.90552,-29.83019 1.72306,-10.10529 6.58536,-21.65894 10.80505,-25.67482 6.62253,-6.30267 9.61192,-6.09204 21.85067,1.53977 25.51234,15.90893 40.38009,-9.07449 21.61788,-36.32617 -10.8031,-15.69126 -30.37515,-16.52205 -44.69189,-1.89709 -21.671,22.13757 -26.20658,104.24995 -6.90029,124.92317 8.58599,9.19396 9.11003,8.96817 13.59632,-5.85761 3.83563,-12.67552 2.52347,-17.45934 -7.37222,-26.87706 z m 41.95088,-30.23294 c 5.52588,-7.04386 18.43432,-15.69081 28.68537,-19.2155 16.34877,-5.62128 16.97674,-6.43662 5.112,-6.63753 -16.86189,-0.28547 -40.40303,18.95397 -50.8109,41.52633 l -7.9008,17.13502 3.02397,-24.35708 c 2.45331,-19.76049 1.31233,-24.98215 -6.04595,-27.66942 -4.98842,-1.82178 -10.40458,-2.04217 -12.03583,-0.48971 -4.85186,4.61752 3.77374,24.60272 9.2327,21.39189 2.76154,-1.62431 5.02098,-0.63612 5.02098,2.19595 0,9.7927 -10.177,11.08845 -15.73452,2.00336 -5.27155,-8.61753 -5.58761,-8.62347 -5.74308,-0.10834 -0.0905,4.95613 4.70495,13.64539 10.65653,19.30951 5.95159,5.66412 10.92793,14.35342 11.05857,19.3095 0.13071,4.95613 3.65665,-0.12358 7.83566,-11.28795 4.179,-11.16446 12.11941,-26.06221 17.6453,-33.10607 z m 269.36357,-3.43414 c -2.09327,-15.94428 -5.02322,-27.83103 -6.51112,-26.41499 -1.48789,1.41603 -0.99268,15.61991 1.10059,31.56419 2.09318,15.94427 5.02318,27.83106 6.51108,26.41503 1.48789,-1.41603 0.99264,-15.61996 -1.10055,-31.56423 z m 11.60369,-18.7896 c -1.72717,-4.10771 -3.00925,-2.88755 -3.26883,3.11094 -0.23503,5.42812 1.0438,8.46936 2.8417,6.75834 1.79785,-1.71106 1.99003,-6.15222 0.42678,-9.86928 z M 463.03691,328.85998 c 1.30692,-8.47452 1.10111,-14.1947 -0.45734,-12.71149 -1.55849,1.48318 -6.17173,-2.58955 -10.25166,-9.05048 -5.73607,-9.08369 -6.54639,-9.4122 -3.57385,-1.44882 2.11431,5.66412 4.99353,16.67056 6.39832,24.4587 3.26688,18.11168 4.93977,17.84689 7.88453,-1.24791 z m 246.02186,-6.15404 c -1.72718,-4.1077 -3.00926,-2.88755 -3.26883,3.11094 -0.23503,5.42812 1.0438,8.46936 2.8417,6.75835 1.79785,-1.71106 1.99003,-6.15223 0.42678,-9.86929 z m -63.21184,-31.96571 c 0,-13.68542 -2.17988,-16.48638 -13.52633,-17.38007 -16.83679,-1.32615 -17.71637,7.84664 -1.35263,14.10638 l 12.17369,4.65685 -12.17369,0.32625 c -6.69555,0.17961 -12.21096,3.22283 -12.25654,6.76288 -0.0645,5.01092 -1.05908,4.97228 -4.49048,-0.17425 -2.42976,-3.64439 -8.46229,-5.13012 -13.44348,-3.31097 -21.88517,7.9925 -0.83413,17.2235 30.1905,13.23867 12.67839,-1.62838 14.87896,-4.32396 14.87896,-18.22574 z m -188.6972,0.66285 c -5.34352,-5.04762 -5.965,-4.45616 -3.02877,2.88248 2.03181,5.07827 5.05716,7.93607 6.723,6.3507 1.66583,-1.58538 0.003,-5.74033 -3.69423,-9.23318 z m 74.09359,-2.48879 c 24.79282,-33.19699 30.05965,-96.70134 11.10981,-133.95577 -13.48318,-26.50718 -20.90924,-30.35446 -42.3081,-21.91892 -31.62291,12.46597 -54.13821,91.31886 -37.79576,132.36809 15.0256,37.74138 49.57245,49.51167 68.99405,23.5066 z m -49.57899,-41.59908 c -12.37925,-13.01817 -11.55685,-43.38709 1.47894,-54.61449 21.25135,-18.30327 47.56839,4.14923 40.70216,34.72518 -6.7323,29.97931 -24.58264,38.39615 -42.18114,19.88931 z M 506.0012,220.9616 c -2.18257,-27.25934 -8.57201,-36.38418 -18.4123,-26.29467 -5.45385,5.59199 -5.34162,6.16496 0.57967,2.9596 5.64119,-3.05372 6.44723,-1.28944 3.47823,7.61324 -2.63263,7.89413 -1.95506,10.46494 2.1256,8.06476 8.37923,-4.92853 7.1645,2.8976 -2.29765,14.8035 -7.4967,9.4328 -7.97906,8.99812 -8.57137,-7.7238 -0.34497,-9.74546 -1.7782,-13.48078 -3.18442,-8.30068 -4.85831,17.89665 3.06189,34.29331 16.07183,33.27228 10.90166,-0.85555 11.90343,-3.24894 10.21041,-24.39423 z m 8.40087,-17.00913 c -1.28962,-6.37212 -2.3448,-1.15857 -2.3448,11.5857 0,12.74427 1.05514,17.95786 2.3448,11.5857 1.28961,-6.37211 1.28961,-16.79925 0,-23.1714 z m 98.98167,75.76954 c 0,-6.30933 -2.18425,-6.79245 -10.82106,-2.39343 -5.95158,3.03136 -10.82106,6.58859 -10.82106,7.90497 0,1.31639 4.86948,2.39344 10.82106,2.39344 6.12191,0 10.82106,-3.43279 10.82106,-7.90498 z M 360.56241,941.57553 c 0,-12.74427 1.05518,-17.95782 2.34479,-11.5857 1.28961,6.37216 1.28961,16.79929 0,23.1714 -1.28961,6.37216 -2.34479,1.15857 -2.34479,-11.5857 z m 21.02281,-61.79041 c 0,-7.08015 1.22802,-9.97656 2.72899,-6.4365 1.50096,3.54009 1.50096,9.33294 0,12.873 -1.50097,3.5401 -2.72899,0.64365 -2.72899,-6.4365 z M 524.94178,313.09444 c 30.09874,-18.35109 48.82238,-77.46561 41.9082,-132.31338 l -3.40786,-27.0333 17.30591,0 c 23.03648,0 18.96746,-12.00012 -5.238,-15.44761 -9.94218,-1.41603 -18.98452,-5.19328 -20.09411,-8.3939 -2.12166,-6.12001 28.77615,-12.59264 40.27409,-8.43678 21.86569,7.9032 40.02776,74.36954 31.76942,116.26406 -3.2155,16.31218 -5.74637,18.49371 -25.05781,21.59876 -18.09433,2.90934 -21.48106,5.41214 -21.48106,15.87429 0,8.84323 -3.01155,12.42041 -10.45644,12.42041 -5.75109,0 -11.86261,4.21633 -13.58121,9.36961 -1.7186,5.15327 -11.70423,13.26327 -22.19027,18.0222 -25.8017,11.70965 -30.56959,10.76871 -9.75086,-1.92436 z m 98.88273,-102.27636 c 0.52525,-31.41276 -2.93666,-24.7583 -6.47385,12.44389 -1.77362,18.65358 -1.14833,26.81465 1.57801,20.59681 2.48357,-5.66413 4.68669,-20.53242 4.89584,-33.0407 z m -22.61446,-29.72461 c -5.20766,-1.29516 -13.72924,-1.29516 -18.93686,0 -5.20766,1.29517 -0.94684,2.35488 9.46843,2.35488 10.41527,0 14.67604,-1.05971 9.46843,-2.35488 z m 0.0632,-10.28682 c -5.17294,-1.28883 -14.91189,-1.33558 -21.64212,-0.10381 -6.73027,1.23165 -2.49785,2.28616 9.40532,2.3433 11.90317,0.0573 17.4097,-0.95055 12.23676,-2.23937 z m 15.80659,-7.72595 c -1.72717,-4.1077 -3.00921,-2.88755 -3.26887,3.11094 -0.23503,5.42813 1.04384,8.46937 2.84174,6.75835 1.79785,-1.71106 1.99008,-6.15222 0.42722,-9.86929 z"
       id="path6470"
       inkscape:connector-curvature="0" />
  </g>
</svg>
